<svg version="1.1" id="Layer_1" xmlns="http://www.w3.org/2000/svg" xmlns:xlink="http://www.w3.org/1999/xlink" x="0px" y="0px"
	 width="100%" viewBox="0 0 597 597" enable-background="new 0 0 597 597" xml:space="preserve">
<path fill="#5BC6F1" opacity="1.000000" stroke="none" 
	d="
M0.999999,324.000000 
	C1.000000,307.979095 1.000000,291.958221 1.345931,275.231384 
	C2.122762,270.587708 2.273463,266.595001 3.033168,262.721771 
	C6.284852,246.143570 8.856371,229.366013 13.294194,213.102722 
	C19.161156,191.602036 28.380491,171.330429 39.480915,151.930984 
	C50.483879,132.701874 63.201828,114.677055 78.255730,98.502960 
	C88.055901,87.973526 98.927536,78.392159 109.746338,68.871475 
	C126.147018,54.438656 144.665176,43.027847 164.024353,33.061638 
	C182.058868,23.777380 200.990189,16.511238 220.585297,11.353416 
	C239.993393,6.244816 259.670288,2.204867 279.901123,1.953238 
	C280.937866,1.940343 281.967224,1.331418 283.000000,0.999998 
	C293.687561,1.000000 304.375122,1.000000 315.772766,1.349908 
	C324.360901,2.459007 332.242584,3.182668 340.116272,3.984488 
	C358.852905,5.892535 377.000702,10.598038 394.779694,16.503237 
	C413.569672,22.744236 431.547272,30.972282 448.743011,40.886654 
	C465.636047,50.626495 481.625092,61.709877 496.015778,74.780319 
	C507.133698,84.878212 517.412720,95.963394 527.489136,107.129036 
	C541.673340,122.846382 553.050659,140.600204 563.049683,159.223526 
	C572.741211,177.274139 580.479187,196.154816 586.019165,215.874908 
	C591.947937,236.978897 596.486633,258.354645 597.043457,280.398590 
	C597.073914,281.606323 597.668152,282.799866 598.000000,284.000000 
	C598.000000,294.354218 598.000000,304.708466 597.650330,315.773071 
	C596.542664,324.346680 596.346741,332.314362 594.908997,340.051208 
	C591.978333,355.821899 589.291260,371.731079 584.862732,387.110657 
	C575.832214,418.472443 561.487732,447.457886 542.004028,473.712921 
	C534.778320,483.449890 526.725464,492.572968 518.894348,501.685638 
	C516.358948,498.935638 514.004211,496.450928 511.594391,494.020905 
	C503.715057,486.075409 495.985168,477.971313 487.873688,470.269562 
	C480.556183,463.321655 473.050934,456.526276 465.193451,450.204346 
	C456.398987,443.128571 447.115143,436.661011 438.018036,429.553619 
	C436.645660,425.503357 435.299500,421.828247 434.481537,418.090576 
	C459.260010,417.393280 482.530396,422.820068 505.539337,430.040588 
	C506.085297,426.887512 506.528381,424.328339 507.318939,421.899292 
	C513.414124,424.913208 519.161865,427.796967 524.909607,430.680756 
	C525.287842,430.035919 525.666138,429.391113 526.044434,428.746307 
	C521.955505,421.468445 513.751343,419.683807 506.896454,415.666595 
	C506.446869,415.254822 506.181366,415.028870 505.909363,414.399414 
	C505.217804,411.324738 504.256439,408.690155 503.897522,405.975922 
	C502.613068,396.261658 497.002167,388.421509 492.960632,379.894287 
	C492.080078,378.036438 491.673431,375.953979 491.447815,374.010132 
	C493.186401,373.929871 494.525696,373.814392 495.864990,373.698914 
	C495.978851,373.248962 496.092712,372.799042 496.206604,372.349121 
	C492.667297,370.480835 489.128021,368.612549 485.427429,366.381165 
	C484.390442,364.764038 483.514771,363.510010 483.140839,362.188477 
	C495.900116,362.121002 508.157684,362.121002 521.807678,362.121002 
	C520.283997,358.134003 519.841309,354.997742 518.141663,352.861725 
	C509.587402,342.111389 500.670593,331.650269 491.979004,321.007660 
	C490.817261,319.585114 490.212372,317.707794 488.931427,315.233307 
	C496.763519,312.800262 503.740112,310.549408 510.768555,308.474121 
	C517.247009,306.561188 523.795288,304.884644 530.275574,302.977570 
	C531.243958,302.692596 532.546387,301.824646 532.709351,301.025574 
	C532.859070,300.290924 531.863037,299.042725 531.058228,298.438141 
	C525.090393,293.955200 518.999756,289.635742 513.031616,285.153137 
	C498.839844,274.493866 481.981110,269.149902 466.180756,261.721893 
	C462.222260,259.860901 458.559143,258.732483 458.773560,253.349686 
	C458.820068,252.182251 457.250214,250.950439 456.575043,249.445312 
	C456.797272,248.026810 457.135651,246.851166 456.899597,245.805145 
	C454.781982,236.421890 452.563324,227.061432 450.192596,217.452057 
	C449.224060,215.677567 448.437317,214.145309 447.650940,212.243027 
	C446.334930,207.950714 445.018494,204.028397 444.059906,200.007751 
	C447.486633,197.782837 450.563232,195.667282 453.623016,193.527695 
	C462.793732,187.114929 469.282257,178.328506 472.117157,167.806534 
	C477.458954,147.979858 476.259674,129.071808 462.078064,112.271294 
	C454.536743,103.337341 445.563080,97.098801 434.531311,94.554665 
	C417.762207,90.687393 401.523804,92.576859 387.531006,103.553001 
	C379.676361,109.714302 372.883698,117.019432 369.508881,126.962387 
	C368.044250,126.639168 366.960754,126.360710 365.879028,126.075493 
	C357.372772,123.832603 348.866852,121.588425 340.001465,119.121002 
	C338.182892,118.252174 336.761627,117.163162 335.258209,117.034569 
	C326.210541,116.260635 317.144043,115.706978 307.703918,114.919441 
	C301.064209,114.646461 294.803558,114.442558 288.545471,114.503273 
	C287.396515,114.514427 286.258026,115.599907 284.681030,116.103714 
	C278.185455,116.029480 272.089264,115.653862 266.073486,116.186432 
	C261.950562,116.551437 257.939484,118.180092 253.460663,119.208527 
	C247.968292,120.384720 242.850220,121.441849 237.832153,122.854309 
	C233.445190,124.089119 229.170776,125.723694 224.766418,126.841095 
	C223.882553,125.268326 222.925705,124.109123 222.298462,122.792854 
	C214.269531,105.943802 200.557831,96.350395 182.565750,93.561272 
	C165.906006,90.978676 150.416550,94.486252 137.541748,106.381348 
	C130.137146,113.222496 125.078163,121.309601 121.723083,130.900864 
	C116.407394,146.096970 118.436028,160.554504 124.484810,174.817963 
	C125.865479,178.073669 128.058624,181.067551 130.271622,183.871109 
	C135.613205,190.638123 142.305313,195.848480 149.809143,200.340332 
	C148.487091,204.746399 147.248734,208.729935 145.743134,212.983841 
	C145.248276,215.193573 145.020660,217.132935 144.427597,219.224182 
	C140.066650,228.822037 137.605179,238.620071 137.260422,249.148193 
	C137.245972,249.701050 137.227737,250.013428 136.909119,250.625748 
	C134.707184,254.123871 135.637085,258.584717 130.844482,260.609375 
	C118.541550,265.806793 106.570190,271.782623 94.349747,277.183563 
	C81.510948,282.857819 70.949219,291.725952 59.180668,301.334656 
	C75.130791,306.108032 90.194572,310.616150 106.013496,315.350281 
	C102.097939,320.489532 99.007408,324.629761 95.828575,328.701019 
	C88.812759,337.686493 81.696449,346.594452 74.773521,355.650482 
	C73.788010,356.939636 73.652664,358.878693 73.123840,360.516968 
	C74.774200,360.951233 76.417282,361.729095 78.076080,361.764191 
	C89.054756,361.996643 100.036804,362.069611 110.873642,362.477844 
	C110.172920,364.103729 109.616310,365.446289 108.676559,366.888062 
	C104.315269,368.873383 98.473396,368.090393 96.939819,374.974487 
	C99.367409,374.863953 101.101143,374.785004 102.791031,375.075378 
	C101.822342,377.336670 100.830292,379.199097 99.983780,381.125519 
	C95.221443,391.963409 88.812149,402.261932 88.694183,414.900879 
	C88.362640,415.240845 88.234421,415.381042 87.750992,415.458405 
	C81.505867,418.829407 75.544662,422.151428 69.799606,425.812622 
	C68.893936,426.389771 68.966072,428.501282 68.586098,429.903351 
	C69.928734,429.698761 71.410805,429.791351 72.589867,429.238129 
	C77.694588,426.842926 82.710754,424.258972 87.877792,422.190979 
	C87.996437,424.928558 87.996437,427.218872 87.996437,429.675720 
	C89.398659,429.784363 90.252335,430.067383 90.979942,429.874542 
	C103.316635,426.605621 115.488228,422.431000 128.007782,420.220947 
	C138.716537,418.330566 149.820328,418.678040 160.616547,418.415100 
	C159.412842,421.872498 158.341949,424.950531 157.167908,428.345245 
	C157.038727,429.105286 157.012711,429.548676 156.632629,430.093353 
	C154.180603,431.146301 151.768890,431.710663 150.036942,433.114014 
	C140.572723,440.782104 131.132599,448.492737 121.959915,456.504456 
	C112.191292,465.036713 102.614510,473.798431 93.178368,482.697845 
	C87.606766,487.952576 82.470276,493.668610 76.838364,498.995544 
	C71.397141,492.572754 66.086052,486.462433 61.147610,480.064514 
	C48.806641,464.076233 38.008732,447.033295 29.676073,428.667206 
	C23.419575,414.877228 17.592501,400.719482 13.446297,386.191223 
	C8.853423,370.097870 6.346649,353.405548 3.029076,336.954346 
	C2.165873,332.673920 1.666486,328.320099 0.999999,324.000000 
z"/>
<path fill="#F6AB4B" opacity="1.000000" stroke="none" 
	d="
M456.182312,553.912109 
	C426.944214,572.340088 395.314270,584.933838 361.509674,591.816711 
	C348.970490,594.369690 336.142059,595.502136 323.222778,597.641235 
	C315.979034,598.000000 308.958099,598.000000 301.732117,597.753906 
	C306.800751,594.596619 313.014374,592.626770 317.110840,588.536560 
	C322.271118,583.384216 327.633911,577.560486 328.054443,569.357727 
	C328.393860,562.735901 328.642151,556.108276 329.092316,549.494202 
	C329.168762,548.371094 329.943665,547.210571 330.676483,546.290955 
	C330.818420,546.112793 332.392639,546.818481 333.091858,547.382263 
	C339.137268,552.256470 344.911133,557.500488 351.201233,562.029663 
	C358.925873,567.591919 374.898956,561.668518 375.063019,550.627075 
	C375.186127,542.341797 376.044922,534.054443 375.873657,525.782593 
	C375.768768,520.716980 374.757629,515.562073 373.395477,510.657776 
	C371.665070,504.427734 369.296204,498.360809 366.957245,492.318542 
	C365.185364,487.741272 363.538422,482.991333 360.943970,478.881287 
	C354.476166,468.635132 347.499725,458.710083 340.857239,448.476196 
	C341.186249,448.068085 341.426270,447.897369 342.054169,447.810181 
	C342.922485,447.204987 343.443756,446.573761 344.231873,445.717468 
	C347.421448,443.701813 350.256531,441.744293 353.284668,440.154388 
	C360.111176,436.570160 367.080078,433.257019 373.906036,429.671692 
	C385.548157,423.556732 397.911224,419.967590 411.219208,418.590332 
	C412.025360,418.333405 412.586517,418.183746 413.423279,418.317688 
	C416.842346,420.644775 419.977051,422.701813 423.131134,424.728760 
	C428.737854,428.331909 434.356293,431.916779 440.025757,435.812592 
	C440.748199,437.392853 441.414703,438.669891 442.025940,440.367432 
	C442.076019,441.937439 442.070648,443.109863 442.303589,444.232880 
	C445.167908,458.041870 448.916687,471.732147 450.745972,485.674957 
	C453.130096,503.846344 454.027740,522.214233 455.499512,540.502808 
	C455.858368,544.962036 455.961578,549.441772 456.182312,553.912109 
z"/>
<path fill="#F9BD6C" opacity="1.000000" stroke="none" 
	d="
M276.454102,598.000000 
	C271.520294,597.314941 267.058655,596.464600 262.557892,595.971741 
	C234.757004,592.927551 207.907593,586.084595 182.532516,574.389282 
	C167.395508,567.412842 152.937149,558.963928 138.193497,550.703918 
	C139.669113,534.110413 141.435196,518.010437 142.503540,501.864288 
	C143.891235,480.891663 145.364304,459.985321 152.695374,439.684570 
	C152.920731,438.298553 152.984955,437.200439 153.409378,436.042389 
	C162.512314,429.998749 171.255066,424.015015 180.274658,418.035889 
	C181.192856,418.259277 181.834213,418.478088 182.947968,418.729431 
	C195.851334,419.237152 207.350540,423.745850 218.481339,428.407898 
	C228.826859,432.741058 238.212585,439.365753 247.998444,445.352722 
	C244.020432,452.076233 240.605652,458.854889 236.001465,464.695953 
	C224.985794,478.670959 218.718369,494.908173 213.388489,511.456573 
	C210.966934,518.975098 210.390411,527.295166 210.250473,535.273987 
	C210.143356,541.381104 211.326019,547.749512 213.190262,553.601746 
	C216.805389,564.950378 234.047455,567.455688 242.836182,558.211243 
	C247.206635,553.614136 251.403625,548.852112 255.679047,544.164673 
	C256.470703,544.494019 257.262390,544.823303 258.054047,545.152588 
	C258.366791,551.139893 259.074341,557.137939 258.912628,563.112427 
	C258.540649,576.859985 269.040924,591.383240 281.588409,595.037720 
	C283.209045,595.509705 284.536652,596.987915 286.000000,598.000000 
	C282.969391,598.000000 279.938812,598.000000 276.454102,598.000000 
z"/>
<path fill="#FDD296" opacity="1.000000" stroke="none" 
	d="
M286.449982,598.000000 
	C284.536652,596.987915 283.209045,595.509705 281.588409,595.037720 
	C269.040924,591.383240 258.540649,576.859985 258.912628,563.112427 
	C259.074341,557.137939 258.366791,551.139893 258.054047,545.152588 
	C257.262390,544.823303 256.470703,544.494019 255.679047,544.164673 
	C251.403625,548.852112 247.206635,553.614136 242.836182,558.211243 
	C234.047455,567.455688 216.805389,564.950378 213.190262,553.601746 
	C211.326019,547.749512 210.143356,541.381104 210.250473,535.273987 
	C210.390411,527.295166 210.966934,518.975098 213.388489,511.456573 
	C218.718369,494.908173 224.985794,478.670959 236.001465,464.695953 
	C240.605652,458.854889 244.020432,452.076233 248.353424,445.374268 
	C254.364105,448.857239 259.755035,453.125580 265.685577,456.423553 
	C275.381866,461.815582 285.899139,465.029572 296.994751,466.446289 
	C296.320862,469.993317 295.106781,473.146271 295.096497,476.303162 
	C294.964264,516.868469 295.003906,557.434326 295.000000,598.000000 
	C292.299988,598.000000 289.599976,598.000000 286.449982,598.000000 
z"/>
<path fill="#FBC47C" opacity="1.000000" stroke="none" 
	d="
M295.428467,598.000000 
	C295.003906,557.434326 294.964264,516.868469 295.096497,476.303162 
	C295.106781,473.146271 296.320862,469.993317 297.406494,466.395569 
	C299.760345,465.884583 301.683105,465.816559 303.876892,465.732727 
	C304.431061,465.506256 304.714203,465.295563 305.303589,465.038055 
	C306.021606,464.962158 306.433380,464.933105 307.252502,464.945068 
	C309.090973,464.285187 310.522125,463.584351 312.239990,462.823669 
	C312.915985,462.779816 313.305206,462.795807 313.958710,462.774170 
	C314.480682,462.503265 314.738373,462.270020 315.321960,461.856445 
	C321.176056,458.937195 326.730774,456.250122 332.221588,453.438202 
	C335.114502,451.956726 337.895752,450.257202 340.727448,448.656128 
	C347.499725,458.710083 354.476166,468.635132 360.943970,478.881287 
	C363.538422,482.991333 365.185364,487.741272 366.957245,492.318542 
	C369.296204,498.360809 371.665070,504.427734 373.395477,510.657776 
	C374.757629,515.562073 375.768768,520.716980 375.873657,525.782593 
	C376.044922,534.054443 375.186127,542.341797 375.063019,550.627075 
	C374.898956,561.668518 358.925873,567.591919 351.201233,562.029663 
	C344.911133,557.500488 339.137268,552.256470 333.091858,547.382263 
	C332.392639,546.818481 330.818420,546.112793 330.676483,546.290955 
	C329.943665,547.210571 329.168762,548.371094 329.092316,549.494202 
	C328.642151,556.108276 328.393860,562.735901 328.054443,569.357727 
	C327.633911,577.560486 322.271118,583.384216 317.110840,588.536560 
	C313.014374,592.626770 306.800751,594.596619 301.263550,597.753906 
	C299.285645,598.000000 297.571289,598.000000 295.428467,598.000000 
z"/>
<path fill="#FDFCFA" opacity="1.000000" stroke="none" 
	d="
M303.605835,465.748535 
	C301.683105,465.816559 299.760345,465.884583 297.425873,466.003357 
	C285.899139,465.029572 275.381866,461.815582 265.685577,456.423553 
	C259.755035,453.125580 254.364105,448.857239 248.375854,445.003113 
	C238.212585,439.365753 228.826859,432.741058 218.481339,428.407898 
	C207.350540,423.745850 195.851334,419.237152 183.056274,418.386383 
	C183.805649,416.965179 184.773865,415.670593 186.059662,414.920319 
	C190.001968,412.619934 194.061768,410.520233 198.083786,408.357208 
	C207.400085,403.346924 216.552658,397.992004 226.090576,393.446045 
	C234.497849,389.438934 243.347885,386.364166 251.972595,382.805481 
	C252.992828,382.384521 254.028229,381.658691 254.674179,380.789886 
	C255.120285,380.189850 255.265350,378.856079 254.885910,378.299469 
	C254.525497,377.770782 253.176819,377.449677 252.490524,377.689453 
	C249.408966,378.766052 246.346695,379.942505 243.389923,381.323639 
	C232.022461,386.633698 220.600967,391.842407 209.389359,397.467133 
	C200.805038,401.773712 192.441101,406.536194 184.112991,411.328522 
	C180.856323,413.202545 177.965225,415.711823 174.938110,417.961700 
	C174.968613,417.991638 174.950485,417.908112 174.706131,417.936035 
	C174.461777,417.963989 174.031052,418.201538 173.674683,418.189209 
	C172.610489,418.258728 171.902634,418.340607 170.753860,418.251709 
	C167.125076,418.065826 163.937241,418.050781 160.749390,418.035706 
	C149.820328,418.678040 138.716537,418.330566 128.007782,420.220947 
	C115.488228,422.431000 103.316635,426.605621 90.979942,429.874542 
	C90.252335,430.067383 89.398659,429.784363 87.996437,429.675720 
	C87.996437,427.218872 87.996437,424.928558 87.921570,421.858948 
	C88.071274,420.442810 88.295853,419.805969 88.861824,419.091095 
	C89.995308,418.761719 90.834816,418.606934 91.572441,418.244690 
	C104.610901,411.841431 117.322075,404.637451 130.745560,399.186462 
	C147.452560,392.402100 164.628693,386.693085 181.827423,381.228424 
	C192.806519,377.739990 204.123627,375.199524 215.417313,372.849945 
	C226.572159,370.529297 237.894379,369.018890 249.126556,367.057892 
	C250.726410,366.778564 252.232513,365.962433 253.782013,365.394745 
	C253.701660,364.900116 253.621292,364.405487 253.540939,363.910858 
	C251.517975,363.733398 249.413055,363.102356 247.485138,363.450806 
	C233.059036,366.057953 218.593430,368.523499 204.288742,371.701843 
	C192.232513,374.380554 180.352997,377.875061 168.441757,381.176239 
	C163.383713,382.578064 158.363724,384.199066 153.467896,386.087280 
	C143.229874,390.035828 133.050720,394.143707 122.919479,398.359436 
	C118.567673,400.170258 114.394440,402.410614 110.141891,404.459564 
	C103.059647,407.871826 95.978889,411.287109 88.897507,414.701141 
	C88.812149,402.261932 95.221443,391.963409 99.983780,381.125519 
	C100.830292,379.199097 101.822342,377.336670 102.898987,374.748230 
	C108.094292,371.792236 113.044266,369.284363 118.206642,367.340637 
	C123.753021,365.252319 129.434265,363.445343 135.170532,361.953491 
	C148.984253,358.360840 162.760422,354.488434 176.753937,351.769501 
	C186.322098,349.910431 196.230682,349.803467 206.453110,348.977692 
	C217.616653,348.991516 228.314163,348.940887 239.447052,348.965546 
	C244.281448,349.040833 248.680435,349.040833 253.079437,349.040833 
	C253.080307,348.180878 253.081177,347.320923 253.082047,346.460938 
	C232.422836,344.007477 211.682175,344.678436 190.550354,346.244781 
	C188.747772,346.437317 187.311310,346.694580 185.434418,346.908081 
	C180.637543,347.627228 176.262482,348.297852 171.928268,349.171082 
	C160.768860,351.419373 149.468964,353.186737 138.525589,356.227386 
	C128.499481,359.013123 118.866127,363.212402 109.059708,366.788849 
	C109.616310,365.446289 110.172920,364.103729 110.991333,362.152283 
	C112.512856,360.511169 113.737907,359.432892 115.038025,358.454285 
	C122.624374,352.744202 129.714417,346.119415 137.958084,341.603455 
	C147.979294,336.113708 158.688065,331.440918 169.623688,328.164734 
	C184.719299,323.642242 200.143982,319.503998 215.723404,317.500824 
	C233.154739,315.259552 250.911148,315.102966 268.535675,314.909058 
	C296.675171,314.599457 324.822601,315.008301 353.338074,315.174225 
	C354.710815,315.217621 355.712097,315.200165 357.048981,315.402588 
	C359.247833,315.692993 361.111145,315.763580 363.307373,315.902222 
	C364.092224,315.955353 364.544098,315.940369 365.242737,316.008148 
	C365.659912,316.058624 365.830383,316.026398 366.415161,316.083069 
	C372.842560,317.123749 378.872650,317.979797 384.864532,319.049927 
	C393.614044,320.612610 402.404327,322.034668 411.055725,324.040710 
	C429.706177,328.365234 447.435699,335.182129 463.255432,346.093109 
	C470.151886,350.849701 476.203705,356.830933 482.639099,362.255981 
	C483.514771,363.510010 484.390442,364.764038 484.973938,366.344055 
	C476.250366,363.720978 467.798889,360.827911 459.392151,357.810120 
	C446.017670,353.009033 432.266388,350.016785 417.809021,348.754395 
	C416.011078,348.120941 414.500824,347.680481 412.600708,347.135468 
	C411.136963,347.020844 410.063049,347.010773 408.640564,346.851471 
	C406.217712,346.553650 404.143524,346.405090 401.658539,346.153564 
	C400.121185,346.042511 398.994629,346.034424 397.680908,345.913849 
	C396.904938,345.834991 396.316071,345.868652 395.334839,345.788940 
	C378.732941,345.743347 362.523376,345.811157 346.151978,345.793213 
	C345.656342,345.795227 345.322540,345.882935 344.602966,345.921539 
	C343.470367,346.015930 342.723511,346.159454 341.830109,346.331635 
	C341.481262,346.514008 341.461151,346.688629 341.472626,347.229919 
	C342.500793,348.264252 343.679779,349.536011 344.858276,349.535553 
	C348.902924,349.533875 352.947449,349.086517 357.455566,348.886230 
	C367.614624,348.924622 377.310120,348.885834 387.412018,348.946838 
	C388.929474,349.020203 390.040527,348.993774 391.253296,349.069458 
	C391.355011,349.171539 391.788025,349.234863 391.788025,349.234863 
	C391.788025,349.234863 392.188385,349.084869 392.595642,349.194092 
	C395.980865,349.521271 398.988068,349.545502 401.931671,349.990570 
	C415.161346,351.990875 428.555603,353.338196 441.539062,356.407562 
	C454.189087,359.398163 466.459259,364.056915 478.796814,368.274109 
	C483.035095,369.722839 486.973267,372.049408 491.048523,373.974976 
	C491.673431,375.953979 492.080078,378.036438 492.960632,379.894287 
	C497.002167,388.421509 502.613068,396.261658 503.897522,405.975922 
	C504.256439,408.690155 505.217804,411.324738 505.698059,414.450012 
	C505.493317,414.904144 505.092407,415.071228 504.843750,414.977722 
	C504.418060,414.877747 504.241058,414.871216 503.815979,414.624390 
	C502.190918,413.830414 500.780975,413.346405 499.442108,412.712250 
	C488.187592,407.381592 476.955994,402.002594 465.695953,396.683655 
	C461.156586,394.539307 456.677429,392.191711 451.968414,390.500061 
	C444.975586,387.988037 437.802887,385.976776 430.706726,383.752380 
	C430.428986,384.333099 430.151276,384.913849 429.873535,385.494568 
	C430.548828,386.286194 431.070679,387.485657 431.923126,387.806274 
	C440.444580,391.011597 449.124725,393.816071 457.551910,397.245117 
	C466.091949,400.720093 474.404449,404.756134 482.803101,408.576080 
	C490.511047,412.081879 498.201080,415.627167 506.035614,419.409973 
	C506.438629,420.366333 506.705078,421.067719 506.971497,421.769135 
	C506.528381,424.328339 506.085297,426.887512 505.539337,430.040588 
	C482.530396,422.820068 459.260010,417.393280 434.116760,418.087341 
	C429.122833,418.124329 425.021942,418.102051 420.688477,418.046997 
	C420.455902,418.014221 420.016541,418.183319 419.747650,418.112701 
	C419.293671,418.032379 419.108612,418.022644 418.771606,417.704407 
	C410.222321,412.291718 401.987854,406.891144 393.384460,402.161774 
	C383.648895,396.810089 373.675232,391.864075 363.628754,387.114685 
	C356.251251,383.627075 348.617432,380.669586 341.012695,377.693268 
	C340.237030,377.389679 338.876465,378.580475 336.363434,379.727997 
	C341.174774,381.721130 344.427032,383.073395 347.683228,384.416016 
	C352.218933,386.286224 356.903320,387.861298 361.267731,390.069275 
	C374.282043,396.653351 387.378448,403.127258 399.984100,410.435455 
	C403.803253,412.649628 409.547821,413.058289 410.974213,418.697540 
	C397.911224,419.967590 385.548157,423.556732 373.906036,429.671692 
	C367.080078,433.257019 360.111176,436.570160 353.284668,440.154388 
	C350.256531,441.744293 347.421448,443.701813 343.896240,445.722534 
	C342.764862,446.563110 342.235992,447.173615 341.707153,447.784119 
	C341.426270,447.897369 341.186249,448.068085 340.857239,448.476196 
	C337.895752,450.257202 335.114502,451.956726 332.221588,453.438202 
	C326.730774,456.250122 321.176056,458.937195 315.069885,461.917664 
	C314.226105,462.376770 313.960266,462.594299 313.694427,462.811829 
	C313.305206,462.795807 312.915985,462.779816 311.851624,462.818237 
	C309.732697,463.549774 308.288910,464.226898 306.845154,464.904053 
	C306.433380,464.933105 306.021606,464.962158 305.037476,465.060394 
	C304.178711,465.335876 303.892273,465.542206 303.605835,465.748535 
M307.251465,345.118713 
	C298.802582,345.242889 290.353729,345.367096 281.135101,345.415497 
	C279.980133,345.514038 278.826782,345.667908 277.669922,345.701660 
	C272.261169,345.859497 268.933289,349.245178 272.531921,354.794373 
	C275.482941,359.344940 279.817444,362.991150 283.485077,367.086273 
	C287.190002,371.223053 295.810883,371.368805 293.760437,380.662781 
	C293.617310,382.079529 293.474182,383.496277 292.962952,385.626160 
	C292.978180,386.424744 292.993378,387.223328 292.543823,388.580872 
	C291.046143,391.913025 289.603271,395.271179 288.038696,398.571625 
	C285.252075,404.450073 280.592682,408.754028 274.996918,412.857697 
	C263.221344,417.221619 251.168640,416.556335 238.601273,414.526245 
	C238.065170,414.413391 237.529053,414.300537 236.382446,413.849518 
	C235.918335,413.846649 235.454224,413.843781 234.418625,413.494080 
	C229.971954,411.111694 225.525299,408.729340 221.078629,406.346954 
	C220.597244,406.887482 220.115875,407.428009 219.634491,407.968506 
	C221.245224,409.683929 222.581146,411.867859 224.528198,413.009796 
	C227.819290,414.940033 231.497055,416.210907 235.786621,417.975098 
	C247.854156,420.725281 259.920288,421.724670 272.629333,417.949585 
	C273.152710,417.324554 273.676056,416.699554 274.908325,416.154388 
	C276.602051,415.428070 278.295776,414.701782 280.639526,413.781921 
	C287.994812,407.407684 294.038391,400.243317 295.253967,389.368042 
	C296.222565,388.897980 297.191162,388.427917 298.184723,388.769989 
	C299.496643,391.678741 300.808594,394.587494 302.893677,397.523132 
	C303.641235,399.306396 304.263275,401.156342 305.166443,402.856964 
	C306.450287,405.274353 307.476776,408.119446 309.444733,409.818726 
	C312.971710,412.864136 317.118195,415.191986 321.758148,418.076691 
	C327.326019,418.827271 332.966766,420.524567 338.444458,420.103088 
	C346.356110,419.494324 354.149536,417.349213 362.733276,415.722198 
	C367.327393,414.470764 371.562408,412.708435 374.328247,406.736847 
	C368.343109,407.721466 364.629944,411.348358 359.568817,413.522278 
	C354.840851,414.338196 350.119293,415.781677 345.383484,415.830139 
	C337.303558,415.912842 329.214691,415.119934 320.935791,414.042877 
	C319.117493,412.793915 317.011780,411.815277 315.535126,410.245056 
	C311.210968,405.646759 307.137299,400.812866 303.068390,395.378540 
	C302.385590,389.138641 301.789429,382.887573 300.986694,376.663147 
	C300.524689,373.080719 302.488129,371.383118 305.326996,370.065094 
	C311.962830,366.984283 317.174255,362.525757 320.724884,355.885193 
	C324.656372,348.532379 323.509583,346.106537 314.375000,345.474823 
	C312.306366,345.453949 310.237762,345.433105 307.251465,345.118713 
M342.971527,363.113525 
	C342.337769,363.899475 341.704010,364.685394 341.070221,365.471313 
	C342.033295,365.977661 342.952271,366.792816 343.966949,366.937653 
	C348.742706,367.619415 353.632538,367.719116 358.321320,368.753357 
	C374.116547,372.237427 389.859619,375.963715 405.589569,379.735260 
	C412.770966,381.457123 419.875031,383.501373 427.014191,385.399414 
	C426.620941,383.310852 425.768738,381.404968 424.477020,381.035461 
	C410.091492,376.920288 395.752472,372.533417 381.167786,369.257538 
	C368.881256,366.497833 356.287964,365.103760 342.971527,363.113525 
z"/>
<path fill="#F5AB4B" opacity="1.000000" stroke="none" 
	d="
M356.713409,315.182739 
	C355.712097,315.200165 354.710815,315.217621 353.240234,314.779755 
	C350.945312,313.885468 349.122314,313.078766 347.293549,313.065399 
	C331.975372,312.953064 316.651886,312.780060 301.339569,313.093414 
	C296.325409,313.196014 294.877686,311.874207 294.892975,306.735657 
	C295.073792,245.959473 295.008057,185.182556 295.001801,124.405846 
	C295.000977,116.315269 295.711548,115.584389 303.764008,116.038017 
	C305.222595,116.120178 306.655396,116.659698 308.220856,117.358368 
	C308.849457,119.277100 309.602417,120.791122 309.825409,122.379547 
	C311.264160,132.628799 312.474548,142.910828 313.976257,153.150360 
	C315.906982,166.314911 318.040924,179.449646 320.278198,193.823547 
	C321.704834,191.986771 322.833405,191.124832 323.156860,190.025925 
	C326.391083,179.038254 329.855927,168.098999 332.535065,156.972580 
	C335.532715,144.523605 337.784454,131.895035 340.360779,119.344635 
	C348.866852,121.588425 357.372772,123.832603 365.879028,126.075493 
	C366.960754,126.360710 368.044250,126.639168 369.762390,127.218674 
	C376.757416,130.529434 383.116974,133.542252 389.624817,136.787643 
	C392.836914,139.372238 395.811554,141.852814 398.980682,144.053268 
	C410.455322,152.020676 419.841003,161.918182 427.342072,173.708893 
	C429.101105,176.473892 431.751282,178.671967 434.109497,181.467407 
	C436.123230,186.440964 438.018921,191.077957 439.596191,195.885666 
	C427.716827,204.776489 417.563263,214.840576 409.627472,227.363770 
	C413.827606,226.791138 417.920258,226.041336 421.654388,224.450119 
	C430.411072,220.718613 438.996063,216.584305 447.650574,212.613037 
	C448.437317,214.145309 449.224060,215.677567 449.884277,217.528381 
	C429.391357,241.169174 415.021667,261.959198 415.806000,266.989502 
	C425.423798,263.078125 435.062378,259.227234 444.640015,255.230286 
	C448.635101,253.563065 452.500458,251.585022 456.424805,249.748276 
	C457.250214,250.950439 458.820068,252.182251 458.773560,253.349686 
	C458.559143,258.732483 462.222260,259.860901 466.180756,261.721893 
	C481.981110,269.149902 498.839844,274.493866 513.031616,285.153137 
	C518.999756,289.635742 525.090393,293.955200 531.058228,298.438141 
	C531.863037,299.042725 532.859070,300.290924 532.709351,301.025574 
	C532.546387,301.824646 531.243958,302.692596 530.275574,302.977570 
	C523.795288,304.884644 517.247009,306.561188 510.768555,308.474121 
	C503.740112,310.549408 496.763519,312.800262 488.931427,315.233307 
	C490.212372,317.707794 490.817261,319.585114 491.979004,321.007660 
	C500.670593,331.650269 509.587402,342.111389 518.141663,352.861725 
	C519.841309,354.997742 520.283997,358.134003 521.807678,362.121002 
	C508.157684,362.121002 495.900116,362.121002 483.140839,362.188477 
	C476.203705,356.830933 470.151886,350.849701 463.255432,346.093109 
	C447.435699,335.182129 429.706177,328.365234 411.055725,324.040710 
	C402.404327,322.034668 393.614044,320.612610 384.864532,319.049927 
	C378.872650,317.979797 372.842560,317.123749 366.329315,315.931458 
	C365.551392,315.769104 365.273712,315.847260 364.996002,315.925415 
	C364.544098,315.940369 364.092224,315.955353 363.001282,315.663635 
	C360.479309,315.298920 358.596344,315.240814 356.713409,315.182739 
M357.671509,269.561584 
	C348.954132,266.579163 337.965912,274.069061 338.040527,283.915924 
	C338.089966,290.445770 340.423035,295.867828 346.186646,298.808350 
	C355.427612,303.522949 364.304596,299.246338 368.999603,288.454926 
	C371.805573,282.005432 366.675232,272.911377 357.671509,269.561584 
z"/>
<path fill="#F8BD6D" opacity="1.000000" stroke="none" 
	d="
M308.100098,116.988068 
	C306.655396,116.659698 305.222595,116.120178 303.764008,116.038017 
	C295.711548,115.584389 295.000977,116.315269 295.001801,124.405846 
	C295.008057,185.182556 295.073792,245.959473 294.892975,306.735657 
	C294.877686,311.874207 296.325409,313.196014 301.339569,313.093414 
	C316.651886,312.780060 331.975372,312.953064 347.293549,313.065399 
	C349.122314,313.078766 350.945312,313.885468 352.868835,314.718933 
	C324.822601,315.008301 296.675171,314.599457 268.535675,314.909058 
	C250.911148,315.102966 233.154739,315.259552 215.723404,317.500824 
	C200.143982,319.503998 184.719299,323.642242 169.623688,328.164734 
	C158.688065,331.440918 147.979294,336.113708 137.958084,341.603455 
	C129.714417,346.119415 122.624374,352.744202 115.038025,358.454285 
	C113.737907,359.432892 112.512856,360.511169 111.135437,361.868958 
	C100.036804,362.069611 89.054756,361.996643 78.076080,361.764191 
	C76.417282,361.729095 74.774200,360.951233 73.123840,360.516968 
	C73.652664,358.878693 73.788010,356.939636 74.773521,355.650482 
	C81.696449,346.594452 88.812759,337.686493 95.828575,328.701019 
	C99.007408,324.629761 102.097939,320.489532 106.013496,315.350281 
	C90.194572,310.616150 75.130791,306.108032 59.180668,301.334656 
	C70.949219,291.725952 81.510948,282.857819 94.349747,277.183563 
	C106.570190,271.782623 118.541550,265.806793 130.844482,260.609375 
	C135.637085,258.584717 134.707184,254.123871 137.265091,250.740112 
	C138.826111,250.828186 139.758591,251.103470 140.716980,251.374664 
	C140.742905,251.370575 140.747528,251.318298 140.973785,251.575287 
	C142.100708,251.990509 143.001343,252.148758 143.894165,252.245667 
	C143.886322,252.184341 143.773010,252.233841 143.994980,252.507263 
	C148.816742,254.486938 153.416534,256.193207 158.224930,258.171631 
	C164.989212,261.435822 171.544907,264.427887 178.100586,267.419952 
	C178.481934,267.033783 178.863266,266.647614 179.244614,266.261444 
	C177.048431,262.190582 175.339996,257.747040 172.566437,254.117401 
	C163.517899,242.275803 154.080719,230.731186 144.793045,219.072311 
	C145.020660,217.132935 145.248276,215.193573 146.138733,213.056778 
	C152.320984,215.221100 157.827744,217.612900 163.363037,219.936752 
	C169.784485,222.632614 175.505508,227.281784 183.057648,226.983185 
	C183.120728,226.945526 183.088196,227.173218 183.088196,227.173218 
	C183.088196,227.173218 183.010696,227.001938 182.928406,226.626556 
	C179.026093,217.059586 171.645981,210.810226 164.568558,204.356934 
	C161.248688,201.329819 157.580383,198.684845 154.050247,195.489349 
	C156.015488,190.497498 158.000473,185.882965 160.311066,181.137848 
	C162.210953,179.128616 163.996017,177.387375 165.324799,175.348724 
	C173.121704,163.386459 182.884949,153.309418 194.220291,144.691864 
	C197.574219,142.142075 200.854721,139.495728 204.526672,136.877106 
	C211.538528,133.634277 218.192596,130.407974 224.846649,127.181671 
	C229.170776,125.723694 233.445190,124.089119 237.832153,122.854309 
	C242.850220,121.441849 247.968292,120.384720 253.520798,119.618073 
	C256.569366,142.887039 268.290436,187.745682 273.269714,192.964783 
	C273.618713,191.115311 273.936920,189.522202 274.218353,187.922607 
	C276.005157,177.766632 277.916199,167.629944 279.512817,157.444061 
	C280.391785,151.836639 280.583893,146.124466 281.360321,140.497421 
	C282.480896,132.376724 283.851044,124.290451 285.114685,116.189484 
	C286.258026,115.599907 287.396515,114.514427 288.545471,114.503273 
	C294.803558,114.442558 301.064209,114.646461 307.709045,115.242477 
	C308.096100,116.146454 308.098083,116.567261 308.100098,116.988068 
M233.859390,297.793304 
	C244.133484,302.861328 251.792633,300.776001 257.325165,290.916840 
	C258.425903,288.955353 258.011841,286.101166 258.150055,283.650391 
	C258.526001,276.983978 254.348083,271.367126 248.004791,269.675781 
	C241.115128,267.838776 233.119553,269.208130 227.978058,279.681061 
	C225.902893,283.908051 227.124680,291.785278 233.859390,297.793304 
z"/>
<path fill="#C48055" opacity="1.000000" stroke="none" 
	d="
M159.985443,181.268433 
	C158.000473,185.882965 156.015488,190.497498 153.737015,195.542938 
	C152.259964,197.288528 151.076401,198.603180 149.892822,199.917816 
	C142.305313,195.848480 135.613205,190.638123 130.271622,183.871109 
	C128.058624,181.067551 125.865479,178.073669 124.484810,174.817963 
	C118.436028,160.554504 116.407394,146.096970 121.723083,130.900864 
	C125.078163,121.309601 130.137146,113.222496 137.541748,106.381348 
	C150.416550,94.486252 165.906006,90.978676 182.565750,93.561272 
	C200.557831,96.350395 214.269531,105.943802 222.298462,122.792854 
	C222.925705,124.109123 223.882553,125.268326 224.766418,126.841110 
	C218.192596,130.407974 211.538528,133.634277 204.338089,136.590271 
	C199.265732,129.889511 192.421066,128.345367 185.272125,126.395111 
	C176.665802,124.047287 168.931000,126.716270 162.961334,130.984482 
	C151.297134,139.324188 146.278244,151.667175 149.992004,166.135101 
	C151.511292,172.053879 153.675629,178.204346 159.985443,181.268433 
z"/>
<path fill="#B6612C" opacity="1.000000" stroke="none" 
	d="
M389.476532,136.555084 
	C383.116974,133.542252 376.757416,130.529434 370.144348,127.260315 
	C372.883698,117.019432 379.676361,109.714302 387.531006,103.553001 
	C401.523804,92.576859 417.762207,90.687393 434.531311,94.554665 
	C445.563080,97.098801 454.536743,103.337341 462.078064,112.271294 
	C476.259674,129.071808 477.458954,147.979858 472.117157,167.806534 
	C469.282257,178.328506 462.793732,187.114929 453.623016,193.527695 
	C450.563232,195.667282 447.486633,197.782837 443.854553,199.729828 
	C442.165771,198.271820 441.040192,196.993393 439.914612,195.714951 
	C438.018921,191.077957 436.123230,186.440964 434.446716,181.339645 
	C436.702026,178.625565 439.608154,176.701370 440.596802,174.059601 
	C442.785400,168.211502 445.739288,161.857422 445.244446,155.973480 
	C444.390076,145.814743 439.973053,136.051056 430.588959,130.890533 
	C424.795349,127.704529 417.466888,125.547775 410.966461,125.856354 
	C402.899109,126.239319 395.068787,129.828247 389.476532,136.555084 
z"/>
<path fill="#0B0A09" opacity="1.000000" stroke="none" 
	d="
M308.220856,117.358368 
	C308.098083,116.567261 308.096100,116.146454 308.088989,115.402603 
	C317.144043,115.706978 326.210541,116.260635 335.258209,117.034569 
	C336.761627,117.163162 338.182892,118.252174 340.001465,119.121002 
	C337.784454,131.895035 335.532715,144.523605 332.535065,156.972580 
	C329.855927,168.098999 326.391083,179.038254 323.156860,190.025925 
	C322.833405,191.124832 321.704834,191.986771 320.278198,193.823547 
	C318.040924,179.449646 315.906982,166.314911 313.976257,153.150360 
	C312.474548,142.910828 311.264160,132.628799 309.825409,122.379547 
	C309.602417,120.791122 308.849457,119.277100 308.220856,117.358368 
z"/>
<path fill="#373733" opacity="1.000000" stroke="none" 
	d="
M284.681030,116.103722 
	C283.851044,124.290451 282.480896,132.376724 281.360321,140.497421 
	C280.583893,146.124466 280.391785,151.836639 279.512817,157.444061 
	C277.916199,167.629944 276.005157,177.766632 274.218353,187.922607 
	C273.936920,189.522202 273.618713,191.115311 273.269714,192.964783 
	C268.290436,187.745682 256.569366,142.887039 253.938538,119.653412 
	C257.939484,118.180092 261.950562,116.551437 266.073486,116.186432 
	C272.089264,115.653862 278.185455,116.029480 284.681030,116.103722 
z"/>
<path fill="#0C0B0A" opacity="1.000000" stroke="none" 
	d="
M456.575043,249.445312 
	C452.500458,251.585022 448.635101,253.563065 444.640015,255.230286 
	C435.062378,259.227234 425.423798,263.078125 415.806000,266.989502 
	C415.021667,261.959198 429.391357,241.169174 450.066101,217.770615 
	C452.563324,227.061432 454.781982,236.421890 456.899597,245.805145 
	C457.135651,246.851166 456.797272,248.026810 456.575043,249.445312 
z"/>
<path fill="#373633" opacity="1.000000" stroke="none" 
	d="
M144.427597,219.224182 
	C154.080719,230.731186 163.517899,242.275803 172.566437,254.117401 
	C175.339996,257.747040 177.048431,262.190582 179.244614,266.261444 
	C178.863266,266.647614 178.481934,267.033783 178.100586,267.419952 
	C171.544907,264.427887 164.989212,261.435822 158.129242,257.831757 
	C153.140961,255.557785 148.456985,253.895813 143.773010,252.233841 
	C143.773010,252.233841 143.886322,252.184341 143.706665,251.930084 
	C142.600510,251.556641 141.674026,251.437469 140.747528,251.318298 
	C140.747528,251.318298 140.742905,251.370575 140.750122,251.011322 
	C139.599701,250.071182 138.442062,249.490280 137.284424,248.909378 
	C137.605179,238.620071 140.066650,228.822037 144.427597,219.224182 
z"/>
<path fill="#C08E6D" opacity="1.000000" stroke="none" 
	d="
M88.694183,414.900879 
	C95.978889,411.287109 103.059647,407.871826 110.141891,404.459564 
	C114.394440,402.410614 118.567673,400.170258 122.919479,398.359436 
	C133.050720,394.143707 143.229874,390.035828 153.467896,386.087280 
	C158.363724,384.199066 163.383713,382.578064 168.441757,381.176239 
	C180.352997,377.875061 192.232513,374.380554 204.288742,371.701843 
	C218.593430,368.523499 233.059036,366.057953 247.485138,363.450806 
	C249.413055,363.102356 251.517975,363.733398 253.540939,363.910858 
	C253.621292,364.405487 253.701660,364.900116 253.782013,365.394745 
	C252.232513,365.962433 250.726410,366.778564 249.126556,367.057892 
	C237.894379,369.018890 226.572159,370.529297 215.417313,372.849945 
	C204.123627,375.199524 192.806519,377.739990 181.827423,381.228424 
	C164.628693,386.693085 147.452560,392.402100 130.745560,399.186462 
	C117.322075,404.637451 104.610901,411.841431 91.572441,418.244690 
	C90.834816,418.606934 89.995308,418.761719 88.575226,419.039307 
	C88.000221,417.884155 88.053207,416.702698 88.106194,415.521271 
	C88.234421,415.381042 88.362640,415.240845 88.694183,414.900879 
z"/>
<path fill="#BB8C6E" opacity="1.000000" stroke="none" 
	d="
M205.987076,348.913208 
	C196.230682,349.803467 186.322098,349.910431 176.753937,351.769501 
	C162.760422,354.488434 148.984253,358.360840 135.170532,361.953491 
	C129.434265,363.445343 123.753021,365.252319 118.206642,367.340637 
	C113.044266,369.284363 108.094292,371.792236 102.942841,374.378906 
	C101.101143,374.785004 99.367409,374.863953 96.939819,374.974487 
	C98.473396,368.090393 104.315269,368.873383 108.676559,366.888062 
	C118.866127,363.212402 128.499481,359.013123 138.525589,356.227386 
	C149.468964,353.186737 160.768860,351.419373 171.928268,349.171082 
	C176.262482,348.297852 180.637543,347.627228 185.814926,346.932556 
	C188.062729,346.770355 189.489609,346.539917 190.916473,346.309479 
	C211.682175,344.678436 232.422836,344.007477 253.082047,346.460938 
	C253.081177,347.320923 253.080307,348.180878 253.079437,349.040833 
	C248.680435,349.040833 244.281448,349.040833 239.314392,348.595337 
	C238.056885,347.782349 237.370071,347.100708 236.677567,347.094910 
	C227.451599,347.017303 218.223999,346.976105 208.999496,347.110687 
	C207.986801,347.125427 206.990814,348.284760 205.987076,348.913208 
z"/>
<path fill="#AE7148" opacity="1.000000" stroke="none" 
	d="
M391.151581,348.967346 
	C390.040527,348.993774 388.929474,349.020203 387.279419,348.578491 
	C386.210571,347.775146 385.683563,347.152863 385.150391,347.147552 
	C376.622437,347.062134 368.093079,347.004395 359.566101,347.108978 
	C358.701233,347.119598 357.849731,348.216339 356.992004,348.809052 
	C352.947449,349.086517 348.902924,349.533875 344.858276,349.535553 
	C343.679779,349.536011 342.500793,348.264252 341.550995,347.146149 
	C341.779938,346.716644 341.976685,346.302979 341.976685,346.302979 
	C342.723511,346.159454 343.470367,346.015930 344.935181,345.915863 
	C345.873383,345.932526 346.093597,345.905731 346.313843,345.878937 
	C362.523376,345.811157 378.732941,345.743347 395.692657,345.835175 
	C396.917908,346.005341 397.392975,346.015839 397.868042,346.026337 
	C398.994629,346.034424 400.121185,346.042511 401.973328,346.364990 
	C404.795624,346.786469 406.892395,346.893585 408.989166,347.000702 
	C410.063049,347.010773 411.136963,347.020844 412.716003,347.478699 
	C414.846344,348.266754 416.471527,348.607086 418.096680,348.947418 
	C432.266388,350.016785 446.017670,353.009033 459.392151,357.810120 
	C467.798889,360.827911 476.250366,363.720978 485.135254,366.707153 
	C489.128021,368.612549 492.667297,370.480835 496.206604,372.349121 
	C496.092712,372.799042 495.978851,373.248962 495.864990,373.698914 
	C494.525696,373.814392 493.186401,373.929871 491.447815,374.010132 
	C486.973267,372.049408 483.035095,369.722839 478.796814,368.274109 
	C466.459259,364.056915 454.189087,359.398163 441.539062,356.407562 
	C428.555603,353.338196 415.161346,351.990875 401.931671,349.990570 
	C398.988068,349.545502 395.980865,349.521271 392.337616,349.150208 
	C391.498749,348.987213 391.325165,348.977295 391.151581,348.967346 
z"/>
<path fill="#917964" opacity="1.000000" stroke="none" 
	d="
M442.081177,439.946930 
	C441.414703,438.669891 440.748199,437.392853 440.041809,435.422913 
	C438.667816,433.107147 437.333740,431.484314 436.340515,429.875427 
	C437.135651,429.902527 437.589935,429.915649 438.044250,429.928772 
	C447.115143,436.661011 456.398987,443.128571 465.193451,450.204346 
	C473.050934,456.526276 480.556183,463.321655 487.873688,470.269562 
	C495.985168,477.971313 503.715057,486.075409 511.594391,494.020905 
	C514.004211,496.450928 516.358948,498.935638 518.894348,501.685669 
	C518.211548,502.960541 517.373169,503.945099 515.973022,504.797913 
	C510.320770,499.386108 505.478790,493.836334 500.093353,488.876678 
	C484.121277,474.167358 468.015808,459.599304 451.752197,445.213806 
	C449.072327,442.843384 445.331635,441.672302 442.081177,439.946930 
z"/>
<path fill="#A29484" opacity="1.000000" stroke="none" 
	d="
M153.049194,436.102295 
	C152.984955,437.200439 152.920731,438.298553 152.264160,439.665161 
	C149.756302,440.697174 147.639420,441.162170 145.968964,442.288971 
	C142.883972,444.369904 140.008972,446.776459 137.138641,449.158447 
	C129.805618,455.243866 122.298462,461.145416 115.283943,467.581512 
	C108.302307,473.987488 101.771469,480.892395 95.164497,487.696594 
	C90.312752,492.693176 85.657066,497.880127 80.914001,502.982269 
	C79.740891,501.888763 78.567772,500.795258 77.266388,499.439453 
	C82.470276,493.668610 87.606766,487.952576 93.178368,482.697845 
	C102.614510,473.798431 112.191292,465.036713 121.959915,456.504456 
	C131.132599,448.492737 140.572723,440.782104 150.036942,433.114014 
	C151.768890,431.710663 154.180603,431.146301 156.540253,430.429047 
	C155.551041,432.476379 154.300110,434.289337 153.049194,436.102295 
z"/>
<path fill="#0E0C0B" opacity="1.000000" stroke="none" 
	d="
M439.596191,195.885666 
	C441.040192,196.993393 442.165771,198.271820 443.496735,199.828171 
	C445.018494,204.028397 446.334930,207.950714 447.650940,212.243027 
	C438.996063,216.584305 430.411072,220.718613 421.654388,224.450119 
	C417.920258,226.041336 413.827606,226.791138 409.627472,227.363770 
	C417.563263,214.840576 427.716827,204.776489 439.596191,195.885666 
z"/>
<path fill="#393632" opacity="1.000000" stroke="none" 
	d="
M149.809143,200.340332 
	C151.076401,198.603180 152.259964,197.288528 153.756760,195.920288 
	C157.580383,198.684845 161.248688,201.329819 164.568558,204.356934 
	C171.645981,210.810226 179.026093,217.059586 182.915146,226.621826 
	C182.984161,226.992477 182.994568,227.020828 182.994568,227.020828 
	C175.505508,227.281784 169.784485,222.632614 163.363037,219.936752 
	C157.827744,217.612900 152.320984,215.221100 146.405975,212.786423 
	C147.248734,208.729935 148.487091,204.746399 149.809143,200.340332 
z"/>
<path fill="#B07147" opacity="1.000000" stroke="none" 
	d="
M505.899017,419.155029 
	C498.201080,415.627167 490.511047,412.081879 482.803101,408.576080 
	C474.404449,404.756134 466.091949,400.720093 457.551910,397.245117 
	C449.124725,393.816071 440.444580,391.011597 431.923126,387.806274 
	C431.070679,387.485657 430.548828,386.286194 429.873535,385.494568 
	C430.151276,384.913849 430.428986,384.333099 430.706726,383.752380 
	C437.802887,385.976776 444.975586,387.988037 451.968414,390.500061 
	C456.677429,392.191711 461.156586,394.539307 465.695953,396.683655 
	C476.955994,402.002594 488.187592,407.381592 499.442108,412.712250 
	C500.780975,413.346405 502.190918,413.830414 503.881287,414.793915 
	C504.493866,415.159607 504.793152,415.115417 505.092407,415.071228 
	C505.092407,415.071228 505.493317,414.904144 505.704590,414.853516 
	C506.181366,415.028870 506.446869,415.254822 506.903381,415.976013 
	C506.695892,417.365875 506.297455,418.260437 505.899017,419.155029 
z"/>
<path fill="#A19485" opacity="1.000000" stroke="none" 
	d="
M87.750992,415.458405 
	C88.053207,416.702698 88.000221,417.884155 88.233833,419.117371 
	C88.295853,419.805969 88.071274,420.442810 87.802917,421.411652 
	C82.710754,424.258972 77.694588,426.842926 72.589867,429.238129 
	C71.410805,429.791351 69.928734,429.698761 68.586098,429.903351 
	C68.966072,428.501282 68.893936,426.389771 69.799606,425.812622 
	C75.544662,422.151428 81.505867,418.829407 87.750992,415.458405 
z"/>
<path fill="#8E7D6B" opacity="1.000000" stroke="none" 
	d="
M506.035614,419.409973 
	C506.297455,418.260437 506.695892,417.365875 507.087463,416.161865 
	C513.751343,419.683807 521.955505,421.468445 526.044434,428.746307 
	C525.666138,429.391113 525.287842,430.035919 524.909607,430.680756 
	C519.161865,427.796967 513.414124,424.913208 507.318939,421.899292 
	C506.705078,421.067719 506.438629,420.366333 506.035614,419.409973 
z"/>
<path fill="#CC8650" opacity="1.000000" stroke="none" 
	d="
M153.409378,436.042389 
	C154.300110,434.289337 155.551041,432.476379 156.894333,430.327728 
	C157.012711,429.548676 157.038727,429.105286 157.520477,428.337036 
	C162.382401,424.815552 166.788605,421.619019 171.194794,418.422485 
	C171.902634,418.340607 172.610489,418.258728 173.797180,418.300720 
	C174.654846,418.482788 174.879669,418.310608 174.950485,417.908112 
	C174.950485,417.908112 174.968613,417.991638 175.362976,417.984070 
	C177.170837,417.994781 178.584320,418.013031 179.997818,418.031311 
	C171.255066,424.015015 162.512314,429.998749 153.409378,436.042389 
z"/>
<path fill="#E6AA60" opacity="1.000000" stroke="none" 
	d="
M438.018036,429.553619 
	C437.589935,429.915649 437.135651,429.902527 436.256409,429.551880 
	C430.932648,425.788879 426.033783,422.363403 421.075989,418.724792 
	C421.017029,418.511597 420.921021,418.079803 420.921021,418.079773 
	C425.021942,418.102051 429.122833,418.124329 433.588562,418.149872 
	C435.299500,421.828247 436.645660,425.503357 438.018036,429.553619 
z"/>
<path fill="#EBBC7D" opacity="1.000000" stroke="none" 
	d="
M170.753860,418.251678 
	C166.788605,421.619019 162.382401,424.815552 157.623642,428.020325 
	C158.341949,424.950531 159.412842,421.872498 160.616547,418.415100 
	C163.937241,418.050781 167.125076,418.065826 170.753860,418.251678 
z"/>
<path fill="#463823" opacity="1.000000" stroke="none" 
	d="
M137.260422,249.148193 
	C138.442062,249.490280 139.599701,250.071182 140.724197,251.015411 
	C139.758591,251.103470 138.826111,250.828186 137.537689,250.438538 
	C137.227737,250.013428 137.245972,249.701050 137.260422,249.148193 
z"/>
<path fill="#5DC5EF" opacity="1.000000" stroke="none" 
	d="
M442.025940,440.367432 
	C445.331635,441.672302 449.072327,442.843384 451.752197,445.213806 
	C468.015808,459.599304 484.121277,474.167358 500.093353,488.876678 
	C505.478790,493.836334 510.320770,499.386108 515.662109,504.894653 
	C503.029022,516.724731 490.382843,528.607483 477.156250,539.804565 
	C470.929779,545.075684 463.587708,549.028931 456.466736,553.745728 
	C455.961578,549.441772 455.858368,544.962036 455.499512,540.502808 
	C454.027740,522.214233 453.130096,503.846344 450.745972,485.674957 
	C448.916687,471.732147 445.167908,458.041870 442.303589,444.232880 
	C442.070648,443.109863 442.076019,441.937439 442.025940,440.367432 
z"/>
<path fill="#5EC6EF" opacity="1.000000" stroke="none" 
	d="
M81.073975,503.287048 
	C85.657066,497.880127 90.312752,492.693176 95.164497,487.696594 
	C101.771469,480.892395 108.302307,473.987488 115.283943,467.581512 
	C122.298462,461.145416 129.805618,455.243866 137.138641,449.158447 
	C140.008972,446.776459 142.883972,444.369904 145.968964,442.288971 
	C147.639420,441.162170 149.756302,440.697174 152.103012,439.953033 
	C145.364304,459.985321 143.891235,480.891663 142.503540,501.864288 
	C141.435196,518.010437 139.669113,534.110413 137.895233,550.487305 
	C127.437309,543.364502 117.057114,536.288513 107.236595,528.506287 
	C99.902077,522.694092 93.239990,516.023682 86.388657,509.617615 
	C84.469872,507.823517 82.941444,505.611938 81.073975,503.287048 
z"/>
<path fill="#B17147" opacity="1.000000" stroke="none" 
	d="
M411.219208,418.590332 
	C409.547821,413.058289 403.803253,412.649628 399.984100,410.435455 
	C387.378448,403.127258 374.282043,396.653351 361.267731,390.069275 
	C356.903320,387.861298 352.218933,386.286224 347.683228,384.416016 
	C344.427032,383.073395 341.174774,381.721130 336.363434,379.727997 
	C338.876465,378.580475 340.237030,377.389679 341.012695,377.693268 
	C348.617432,380.669586 356.251251,383.627075 363.628754,387.114685 
	C373.675232,391.864075 383.648895,396.810089 393.384460,402.161774 
	C401.987854,406.891144 410.222321,412.291718 418.418701,417.716675 
	C417.072601,417.611023 415.952545,417.019928 414.769897,416.839813 
	C414.300659,416.768372 413.692535,417.608795 413.147644,418.034058 
	C412.586517,418.183746 412.025360,418.333405 411.219208,418.590332 
z"/>
<path fill="#BB6621" opacity="1.000000" stroke="none" 
	d="
M413.423279,418.317688 
	C413.692535,417.608795 414.300659,416.768372 414.769897,416.839813 
	C415.952545,417.019928 417.072601,417.611023 418.570618,418.025146 
	C419.108612,418.022644 419.293671,418.032379 419.887573,418.298218 
	C420.536865,418.767578 420.816345,418.895447 421.134918,418.937958 
	C426.033783,422.363403 430.932648,425.788879 435.915588,429.537903 
	C437.333740,431.484314 438.667816,433.107147 439.985840,435.119690 
	C434.356293,431.916779 428.737854,428.331909 423.131134,424.728760 
	C419.977051,422.701813 416.842346,420.644775 413.423279,418.317688 
z"/>
<path fill="#FBC47C" opacity="1.000000" stroke="none" 
	d="
M342.054138,447.810150 
	C342.235992,447.173615 342.764862,446.563110 343.629395,445.947571 
	C343.443756,446.573761 342.922485,447.204987 342.054138,447.810150 
z"/>
<path fill="#BF8E6E" opacity="1.000000" stroke="none" 
	d="
M180.274658,418.035889 
	C178.584320,418.013031 177.170837,417.994781 175.332489,417.954132 
	C177.965225,415.711823 180.856323,413.202545 184.112991,411.328522 
	C192.441101,406.536194 200.805038,401.773712 209.389359,397.467133 
	C220.600967,391.842407 232.022461,386.633698 243.389923,381.323639 
	C246.346695,379.942505 249.408966,378.766052 252.490524,377.689453 
	C253.176819,377.449677 254.525497,377.770782 254.885910,378.299469 
	C255.265350,378.856079 255.120285,380.189850 254.674179,380.789886 
	C254.028229,381.658691 252.992828,382.384521 251.972595,382.805481 
	C243.347885,386.364166 234.497849,389.438934 226.090576,393.446045 
	C216.552658,397.992004 207.400085,403.346924 198.083786,408.357208 
	C194.061768,410.520233 190.001968,412.619934 186.059662,414.920319 
	C184.773865,415.670593 183.805649,416.965179 182.583893,418.353882 
	C181.834213,418.478088 181.192856,418.259277 180.274658,418.035889 
z"/>
<path fill="#FDD296" opacity="1.000000" stroke="none" 
	d="
M307.252502,464.945068 
	C308.288910,464.226898 309.732697,463.549774 311.564880,462.878082 
	C310.522125,463.584351 309.090973,464.285187 307.252502,464.945068 
z"/>
<path fill="#FDD296" opacity="1.000000" stroke="none" 
	d="
M303.876892,465.732727 
	C303.892273,465.542206 304.178711,465.335876 304.731262,465.107239 
	C304.714203,465.295563 304.431061,465.506256 303.876892,465.732727 
z"/>
<path fill="#FDD296" opacity="1.000000" stroke="none" 
	d="
M313.958710,462.774170 
	C313.960266,462.594299 314.226105,462.376770 314.744019,462.098022 
	C314.738373,462.270020 314.480682,462.503265 313.958710,462.774170 
z"/>
<path fill="#1E1F1F" opacity="1.000000" stroke="none" 
	d="
M315.041199,345.838226 
	C323.509583,346.106537 324.656372,348.532379 320.724884,355.885193 
	C317.174255,362.525757 311.962830,366.984283 305.326996,370.065094 
	C302.488129,371.383118 300.524689,373.080719 300.986694,376.663147 
	C301.789429,382.887573 302.385590,389.138641 302.908569,395.902374 
	C302.539307,396.782867 302.329895,397.139557 302.120514,397.496246 
	C300.808594,394.587494 299.496643,391.678741 298.377991,388.136627 
	C298.350647,386.221252 298.130035,384.939209 297.959778,383.949677 
	C296.039490,384.349335 294.685272,384.631165 293.331055,384.913025 
	C293.474182,383.496277 293.617310,382.079529 294.196381,380.475555 
	C295.405762,379.331696 296.902924,378.310303 296.824127,377.429932 
	C296.524139,374.077972 295.316010,370.787689 295.181000,367.444702 
	C294.908051,360.686768 295.114319,353.909485 295.479858,347.159912 
	C296.552856,347.201569 297.269012,347.223450 298.131958,347.602478 
	C303.248871,348.262726 308.217682,348.672821 313.190582,348.730255 
	C313.796234,348.737274 314.423798,346.848450 315.041199,345.838226 
M304.376373,362.893219 
	C304.063019,360.666260 304.209717,358.208893 303.255188,356.303101 
	C302.725128,355.244720 300.357208,355.106781 298.817627,354.553955 
	C298.641663,357.623779 298.465698,360.693573 298.289764,363.763397 
	C300.157074,363.679565 302.024384,363.595764 304.376373,362.893219 
z"/>
<path fill="#504F4F" opacity="1.000000" stroke="none" 
	d="
M295.122955,347.140167 
	C295.114319,353.909485 294.908051,360.686768 295.181000,367.444702 
	C295.316010,370.787689 296.524139,374.077972 296.824127,377.429932 
	C296.902924,378.310303 295.405762,379.331696 294.313660,380.142578 
	C295.810883,371.368805 287.190002,371.223053 283.485077,367.086273 
	C279.817444,362.991150 275.482941,359.344940 272.531921,354.794373 
	C268.933289,349.245178 272.261169,345.859497 277.669922,345.701660 
	C278.826782,345.667908 279.980133,345.514038 281.746216,345.738068 
	C286.612549,346.420471 290.867767,346.780304 295.122955,347.140167 
z"/>
<path fill="#AF7048" opacity="1.000000" stroke="none" 
	d="
M343.401001,363.109375 
	C356.287964,365.103760 368.881256,366.497833 381.167786,369.257538 
	C395.752472,372.533417 410.091492,376.920288 424.477020,381.035461 
	C425.768738,381.404968 426.620941,383.310852 427.014191,385.399414 
	C419.875031,383.501373 412.770966,381.457123 405.589569,379.735260 
	C389.859619,375.963715 374.116547,372.237427 358.321320,368.753357 
	C353.632538,367.719116 348.742706,367.619415 343.966949,366.937653 
	C342.952271,366.792816 342.033295,365.977661 341.070221,365.471313 
	C341.704010,364.685394 342.337769,363.899475 343.401001,363.109375 
z"/>
<path fill="#545454" opacity="1.000000" stroke="none" 
	d="
M271.982574,417.946075 
	C259.920288,421.724670 247.854156,420.725281 235.401154,417.475281 
	C235.007156,415.930603 234.998642,414.885773 234.990112,413.840942 
	C235.454224,413.843781 235.918335,413.846649 236.745148,414.283478 
	C237.757858,414.757690 238.407883,414.797943 239.057907,414.838196 
	C251.168640,416.556335 263.221344,417.221619 275.767151,412.910187 
	C277.688049,413.300262 278.838776,413.637848 279.989471,413.975464 
	C278.295776,414.701782 276.602051,415.428070 274.226868,416.136719 
	C273.024506,416.728058 272.503540,417.337067 271.982574,417.946075 
z"/>
<path fill="#2A2A2A" opacity="1.000000" stroke="none" 
	d="
M321.129578,414.694855 
	C329.214691,415.119934 337.303558,415.912842 345.383484,415.830139 
	C350.119293,415.781677 354.840851,414.338196 360.279358,413.790710 
	C361.324432,414.659271 361.658936,415.259430 361.993408,415.859589 
	C354.149536,417.349213 346.356110,419.494324 338.444458,420.103088 
	C332.966766,420.524567 327.326019,418.827271 321.386322,417.557129 
	C321.052856,416.256653 321.091217,415.475739 321.129578,414.694855 
z"/>
<path fill="#575757" opacity="1.000000" stroke="none" 
	d="
M280.314514,413.878693 
	C278.838776,413.637848 277.688049,413.300262 276.159058,412.939209 
	C280.592682,408.754028 285.252075,404.450073 288.038696,398.571625 
	C289.603271,395.271179 291.046143,391.913025 292.844574,388.603699 
	C293.752350,389.083496 294.359375,389.540497 294.966400,389.997528 
	C294.038391,400.243317 287.994812,407.407684 280.314514,413.878693 
z"/>
<path fill="#2E2F2F" opacity="1.000000" stroke="none" 
	d="
M321.032684,414.368866 
	C321.091217,415.475739 321.052856,416.256653 321.010132,417.428650 
	C317.118195,415.191986 312.971710,412.864136 309.444733,409.818726 
	C307.476776,408.119446 306.450287,405.274353 305.166443,402.856964 
	C304.263275,401.156342 303.641235,399.306396 302.507080,397.509705 
	C302.329895,397.139557 302.539307,396.782867 302.857117,396.248718 
	C307.137299,400.812866 311.210968,405.646759 315.535126,410.245056 
	C317.011780,411.815277 319.117493,412.793915 321.032684,414.368866 
z"/>
<path fill="#5B5959" opacity="1.000000" stroke="none" 
	d="
M234.704376,413.667511 
	C234.998642,414.885773 235.007156,415.930603 235.013962,417.367218 
	C231.497055,416.210907 227.819290,414.940033 224.528198,413.009796 
	C222.581146,411.867859 221.245224,409.683929 219.634491,407.968506 
	C220.115875,407.428009 220.597244,406.887482 221.078629,406.346954 
	C225.525299,408.729340 229.971954,411.111694 234.704376,413.667511 
z"/>
<path fill="#313131" opacity="1.000000" stroke="none" 
	d="
M362.363342,415.790894 
	C361.658936,415.259430 361.324432,414.659271 360.681396,413.880859 
	C364.629944,411.348358 368.343109,407.721466 374.328247,406.736847 
	C371.562408,412.708435 367.327393,414.470764 362.363342,415.790894 
z"/>
<path fill="#C59376" opacity="1.000000" stroke="none" 
	d="
M206.453110,348.977692 
	C206.990814,348.284760 207.986801,347.125427 208.999496,347.110687 
	C218.223999,346.976105 227.451599,347.017303 236.677567,347.094910 
	C237.370071,347.100708 238.056885,347.782349 238.879013,348.520050 
	C228.314163,348.940887 217.616653,348.991516 206.453110,348.977692 
z"/>
<path fill="#B37750" opacity="1.000000" stroke="none" 
	d="
M357.455566,348.886230 
	C357.849731,348.216339 358.701233,347.119598 359.566101,347.108978 
	C368.093079,347.004395 376.622437,347.062134 385.150391,347.147552 
	C385.683563,347.152863 386.210571,347.775146 386.873047,348.478729 
	C377.310120,348.885834 367.614624,348.924622 357.455566,348.886230 
z"/>
<path fill="#737273" opacity="1.000000" stroke="none" 
	d="
M295.479858,347.159912 
	C290.867767,346.780304 286.612549,346.420471 282.131104,345.775970 
	C290.353729,345.367096 298.802582,345.242889 307.603882,345.649841 
	C304.632568,346.535767 301.308868,346.890533 297.985138,347.245361 
	C297.269012,347.223450 296.552856,347.201569 295.479858,347.159912 
z"/>
<path fill="#272526" opacity="1.000000" stroke="none" 
	d="
M298.131958,347.602478 
	C301.308868,346.890533 304.632568,346.535767 308.062714,345.796631 
	C310.237762,345.433105 312.306366,345.453949 314.708099,345.656525 
	C314.423798,346.848450 313.796234,348.737274 313.190582,348.730255 
	C308.217682,348.672821 303.248871,348.262726 298.131958,347.602478 
z"/>
<path fill="#504F4F" opacity="1.000000" stroke="none" 
	d="
M295.110168,389.682800 
	C294.359375,389.540497 293.752350,389.083496 293.076965,388.324219 
	C292.993378,387.223328 292.978180,386.424744 293.147003,385.269592 
	C294.685272,384.631165 296.039490,384.349335 297.959778,383.949677 
	C298.130035,384.939209 298.350647,386.221252 298.365479,387.730560 
	C297.191162,388.427917 296.222565,388.897980 295.110168,389.682800 
z"/>
<path fill="#B37750" opacity="1.000000" stroke="none" 
	d="
M417.809021,348.754395 
	C416.471527,348.607086 414.846344,348.266754 413.105896,347.583191 
	C414.500824,347.680481 416.011078,348.120941 417.809021,348.754395 
z"/>
<path fill="#B37750" opacity="1.000000" stroke="none" 
	d="
M408.640564,346.851471 
	C406.892395,346.893585 404.795624,346.786469 402.384094,346.467957 
	C404.143524,346.405090 406.217712,346.553650 408.640564,346.851471 
z"/>
<path fill="#F8BD6D" opacity="1.000000" stroke="none" 
	d="
M357.048981,315.402557 
	C358.596344,315.240814 360.479309,315.298920 362.668335,315.595581 
	C361.111145,315.763580 359.247833,315.692993 357.048981,315.402557 
z"/>
<path fill="#C59376" opacity="1.000000" stroke="none" 
	d="
M190.550354,346.244781 
	C189.489609,346.539917 188.062729,346.770355 186.255371,346.976318 
	C187.311310,346.694580 188.747772,346.437317 190.550354,346.244781 
z"/>
<path fill="#575757" opacity="1.000000" stroke="none" 
	d="
M272.305969,417.947815 
	C272.503540,417.337067 273.024506,416.728058 273.872437,416.096802 
	C273.676056,416.699554 273.152710,417.324554 272.305969,417.947815 
z"/>
<path fill="#5B5959" opacity="1.000000" stroke="none" 
	d="
M238.829590,414.682220 
	C238.407883,414.797943 237.757858,414.757690 237.050385,414.452545 
	C237.529053,414.300537 238.065170,414.413391 238.829590,414.682220 
z"/>
<path fill="#B37750" opacity="1.000000" stroke="none" 
	d="
M397.680908,345.913849 
	C397.392975,346.015839 396.917908,346.005341 396.085022,345.948547 
	C396.316071,345.868652 396.904938,345.834991 397.680908,345.913849 
z"/>
<path fill="#B37750" opacity="1.000000" stroke="none" 
	d="
M346.151978,345.793213 
	C346.093597,345.905731 345.873383,345.932526 345.320923,345.964996 
	C345.322540,345.882935 345.656342,345.795227 346.151978,345.793213 
z"/>
<path fill="#F8BD6D" opacity="1.000000" stroke="none" 
	d="
M365.242737,316.008118 
	C365.273712,315.847260 365.551392,315.769104 365.914978,315.842560 
	C365.830383,316.026398 365.659912,316.058624 365.242737,316.008118 
z"/>
<path fill="#B17147" opacity="1.000000" stroke="none" 
	d="
M421.075989,418.724792 
	C420.816345,418.895447 420.536865,418.767578 420.156494,418.368835 
	C420.016541,418.183319 420.455902,418.014221 420.688477,418.046997 
	C420.921021,418.079803 421.017029,418.511597 421.075989,418.724792 
z"/>
<path fill="#BF8E6E" opacity="1.000000" stroke="none" 
	d="
M174.706131,417.936035 
	C174.879669,418.310608 174.654846,418.482788 174.153534,418.313049 
	C174.031052,418.201538 174.461777,417.963989 174.706131,417.936035 
z"/>
<path fill="#B37750" opacity="1.000000" stroke="none" 
	d="
M341.830109,346.331635 
	C341.976685,346.302979 341.779938,346.716644 341.701569,346.800415 
	C341.461151,346.688629 341.481262,346.514008 341.830109,346.331635 
z"/>
<path fill="#8E7D6B" opacity="1.000000" stroke="none" 
	d="
M504.843750,414.977753 
	C504.793152,415.115417 504.493866,415.159607 504.129333,415.034241 
	C504.241058,414.871216 504.418060,414.877747 504.843750,414.977753 
z"/>
<path fill="#B37750" opacity="1.000000" stroke="none" 
	d="
M391.253296,349.069458 
	C391.325165,348.977295 391.498749,348.987213 391.930359,349.040985 
	C392.188385,349.084869 391.788025,349.234863 391.788025,349.234863 
	C391.788025,349.234863 391.355011,349.171539 391.253296,349.069458 
z"/>
<path fill="#FEFBF7" opacity="1.000000" stroke="none" 
	d="
M389.624817,136.787643 
	C395.068787,129.828247 402.899109,126.239319 410.966461,125.856354 
	C417.466888,125.547775 424.795349,127.704529 430.588959,130.890533 
	C439.973053,136.051056 444.390076,145.814743 445.244446,155.973480 
	C445.739288,161.857422 442.785400,168.211502 440.596802,174.059601 
	C439.608154,176.701370 436.702026,178.625565 434.328644,181.003082 
	C431.751282,178.671967 429.101105,176.473892 427.342072,173.708893 
	C419.841003,161.918182 410.455322,152.020676 398.980682,144.053268 
	C395.811554,141.852814 392.836914,139.372238 389.624817,136.787643 
z"/>
<path fill="#2A221E" opacity="1.000000" stroke="none" 
	d="
M358.065796,269.666992 
	C366.675232,272.911377 371.805573,282.005432 368.999603,288.454926 
	C364.304596,299.246338 355.427612,303.522949 346.186646,298.808350 
	C340.423035,295.867828 338.089966,290.445770 338.040527,283.915924 
	C337.965912,274.069061 348.954132,266.579163 358.065796,269.666992 
M351.834900,289.959839 
	C352.664459,289.964142 353.497955,290.022858 354.322937,289.963531 
	C358.177765,289.686279 358.662354,286.519714 358.414795,283.948730 
	C358.135254,281.045349 356.020782,278.157654 352.718475,279.506622 
	C350.878510,280.258240 349.534698,283.143677 348.813507,285.344757 
	C348.426636,286.525421 349.830536,288.292847 349.700684,289.793518 
	C347.462708,287.902344 345.224731,286.011169 342.861176,284.013855 
	C343.398407,287.439819 343.552399,290.168213 344.359436,292.687439 
	C344.671295,293.660919 346.388062,294.352173 347.599365,294.832489 
	C349.702271,295.666260 351.883118,296.347198 354.083099,296.877167 
	C355.533386,297.226532 357.425720,297.801056 358.483002,297.183655 
	C359.716461,296.463348 360.255859,294.554504 361.096405,293.161407 
	C355.867615,294.139404 354.562897,293.763763 351.834900,289.959839 
z"/>
<path fill="#FEFCF8" opacity="1.000000" stroke="none" 
	d="
M160.311066,181.137848 
	C153.675629,178.204346 151.511292,172.053879 149.992004,166.135101 
	C146.278244,151.667175 151.297134,139.324188 162.961334,130.984482 
	C168.931000,126.716270 176.665802,124.047287 185.272125,126.395111 
	C192.421066,128.345367 199.265732,129.889511 203.980286,136.606796 
	C200.854721,139.495728 197.574219,142.142075 194.220291,144.691864 
	C182.884949,153.309418 173.121704,163.386459 165.324799,175.348724 
	C163.996017,177.387375 162.210953,179.128616 160.311066,181.137848 
z"/>
<path fill="#564F4A" opacity="1.000000" stroke="none" 
	d="
M233.638367,297.480103 
	C227.124680,291.785278 225.902893,283.908051 227.978058,279.681061 
	C233.119553,269.208130 241.115128,267.838776 248.004791,269.675781 
	C254.348083,271.367126 258.526001,276.983978 258.150055,283.650391 
	C258.011841,286.101166 258.425903,288.955353 257.325165,290.916840 
	C251.792633,300.776001 244.133484,302.861328 233.638367,297.480103 
M238.048233,284.551971 
	C239.802383,290.092560 243.600067,292.015808 246.250946,288.553040 
	C247.368134,287.093658 248.099030,284.608307 247.677414,282.921234 
	C247.308578,281.445251 244.637131,279.164337 243.759125,279.469879 
	C241.623535,280.212952 239.938950,282.252258 238.048233,284.551971 
z"/>
<path fill="#463823" opacity="1.000000" stroke="none" 
	d="
M143.994980,252.507263 
	C148.456985,253.895813 153.140961,255.557785 157.920624,257.559631 
	C153.416534,256.193207 148.816742,254.486938 143.994980,252.507263 
z"/>
<path fill="#463823" opacity="1.000000" stroke="none" 
	d="
M140.973785,251.575287 
	C141.674026,251.437469 142.600510,251.556641 143.714508,251.991425 
	C143.001343,252.148758 142.100708,251.990509 140.973785,251.575287 
z"/>
<path fill="#393632" opacity="1.000000" stroke="none" 
	d="
M182.997437,226.997208 
	C183.010696,227.001938 183.088196,227.173218 183.088196,227.173218 
	C183.088196,227.173218 183.120728,226.945526 183.057648,226.983185 
	C182.994568,227.020828 182.984161,226.992477 182.997437,226.997208 
z"/>
<path fill="#272526" opacity="1.000000" stroke="none" 
	d="
M304.134033,363.202576 
	C302.024384,363.595764 300.157074,363.679565 298.289764,363.763397 
	C298.465698,360.693573 298.641663,357.623779 298.817627,354.553955 
	C300.357208,355.106781 302.725128,355.244720 303.255188,356.303101 
	C304.209717,358.208893 304.063019,360.666260 304.134033,363.202576 
z"/>
<path fill="#EAE9E9" opacity="1.000000" stroke="none" 
	d="
M350.426300,289.795502 
	C349.830536,288.292847 348.426636,286.525421 348.813507,285.344757 
	C349.534698,283.143677 350.878510,280.258240 352.718475,279.506622 
	C356.020782,278.157654 358.135254,281.045349 358.414795,283.948730 
	C358.662354,286.519714 358.177765,289.686279 354.322937,289.963531 
	C353.497955,290.022858 352.664459,289.964142 351.296082,289.873352 
	C350.757263,289.786896 350.426300,289.795502 350.426300,289.795502 
z"/>
<path fill="#1C1B1C" opacity="1.000000" stroke="none" 
	d="
M350.063477,289.794495 
	C350.426300,289.795502 350.757263,289.786896 350.881592,289.896301 
	C354.562897,293.763763 355.867615,294.139404 361.096405,293.161407 
	C360.255859,294.554504 359.716461,296.463348 358.483002,297.183655 
	C357.425720,297.801056 355.533386,297.226532 354.083099,296.877167 
	C351.883118,296.347198 349.702271,295.666260 347.599365,294.832489 
	C346.388062,294.352173 344.671295,293.660919 344.359436,292.687439 
	C343.552399,290.168213 343.398407,287.439819 342.861176,284.013855 
	C345.224731,286.011169 347.462708,287.902344 350.063477,289.794495 
z"/>
<path fill="#ECEBEB" opacity="1.000000" stroke="none" 
	d="
M238.060471,284.160706 
	C239.938950,282.252258 241.623535,280.212952 243.759125,279.469879 
	C244.637131,279.164337 247.308578,281.445251 247.677414,282.921234 
	C248.099030,284.608307 247.368134,287.093658 246.250946,288.553040 
	C243.600067,292.015808 239.802383,290.092560 238.060471,284.160706 
z"/>
</svg>