<?xml version="1.0" encoding="UTF-8" standalone="no"?>
<svg
   enable-background="new 0 0 52 52"
   height="448"
   viewBox="0 0 503.47028 448"
   width="503.47028"
   version="1.1"
   id="svg10"
   sodipodi:docname="join-group.svg"
   inkscape:version="1.1 (c68e22c387, 2021-05-23)"
   xmlns:inkscape="http://www.inkscape.org/namespaces/inkscape"
   xmlns:sodipodi="http://sodipodi.sourceforge.net/DTD/sodipodi-0.dtd"
   xmlns="http://www.w3.org/2000/svg"
   xmlns:svg="http://www.w3.org/2000/svg">
  <defs
     id="defs14" />
  <sodipodi:namedview
     id="namedview12"
     pagecolor="#ffffff"
     bordercolor="#666666"
     borderopacity="1.0"
     inkscape:pageshadow="2"
     inkscape:pageopacity="0.0"
     inkscape:pagecheckerboard="0"
     showgrid="false"
     inkscape:zoom="1.8102614"
     inkscape:cx="-25.410695"
     inkscape:cy="191.68503"
     inkscape:window-width="3840"
     inkscape:window-height="2036"
     inkscape:window-x="-12"
     inkscape:window-y="-12"
     inkscape:window-maximized="1"
     inkscape:current-layer="g2029"
     showguides="false"
     fit-margin-top="0"
     fit-margin-left="0"
     fit-margin-right="0"
     fit-margin-bottom="0">
    <inkscape:grid
       type="xygrid"
       id="grid2023"
       originx="160.40939"
       originy="191.13991" />
  </sodipodi:namedview>
  <g
     id="g2029"
     transform="translate(160.40939,191.13991)">
    <g
       style="fill:#5b6970"
       id="g1018"
       transform="translate(-288.40939,-223.13991)">
      <path
         d="M 320,256 C 381.9,256 432,205.9 432,144 432,82.1 381.9,32 320,32 258.1,32 208,82.1 208,144 c 0,61.9 50.1,112 112,112 z m 76.8,32 h -8.3 c -20.8,10 -43.9,16 -68.5,16 -24.6,0 -47.6,-6 -68.5,-16 h -8.3 C 179.6,288 128,339.6 128,403.2 V 432 c 0,26.5 21.5,48 48,48 h 288 c 26.5,0 48,-21.5 48,-48 V 403.2 C 512,339.6 460.4,288 396.8,288 Z"
         id="path1009"
         sodipodi:nodetypes="sssssscscssssssss" />
    </g>
    <g
       fill="#5b6970"
       id="g1026"
       transform="matrix(7.1903258,0,0,7.7734604,231.40432,-580.96096)">
      <path
         d="M 13.614831,72.896116 H 7.8731643 v -5.189114 c 0,-0.922509 -0.8931482,-1.729704 -1.9138891,-1.729704 h -3.827778 c -1.0207409,0 -1.9138891,0.807195 -1.9138891,1.729704 v 5.189114 h -5.7416672 c -1.0207409,0 -1.9138891,0.807195 -1.9138891,1.729704 v 3.459409 c 0,0.922509 0.8931482,1.729704 1.9138891,1.729704 h 5.7416672 v 5.189114 c 0,0.922509 0.8931482,1.729704 1.9138891,1.729704 h 3.827778 c 1.0207409,0 1.9138891,-0.807195 1.9138891,-1.729704 v -5.189114 h 5.7416667 c 1.020741,0 1.91389,-0.807195 1.91389,-1.729704 V 74.62582 c 0,-0.922509 -0.893149,-1.729704 -1.91389,-1.729704 z"
         id="path1024"
         style="stroke-width:1.21298" />
    </g>
  </g>
</svg>
