<?xml version="1.0" encoding="UTF-8"?>
<svg xmlns="http://www.w3.org/2000/svg" viewBox="0 0 655.51 492.22">
  <g>
    <path id="path4" style="fill-rule: evenodd;" fill="#5B6970" d="m89.92,237.33c-8.97,2.22-18.14-3.38-20.26-12.35-2.22-8.97,3.38-18.14,12.35-20.26l240.37-58.67c8.97-2.22,18.14,3.38,20.26,12.35,2.22,8.97-3.38,18.14-12.35,20.26l-240.37,58.67Zm484.89,27.21c8.97,2.22,14.57,11.29,12.35,20.26s-11.29,14.57-20.26,12.35l-93.31-22.77c-8.97-2.22-14.57-11.29-12.35-20.26s11.29-14.57,20.26-12.35l93.31,22.77Zm9.75-83.57c9.07,2.12,14.67,11.19,12.54,20.17-2.12,9.07-11.19,14.67-20.17,12.54l-58.38-13.7c-9.07-2.12-14.67-11.19-12.54-20.17,2.12-9.07,11.19-14.67,20.17-12.54l58.38,13.7Zm-504.67-27.02c-9.07,2.12-18.14-3.57-20.17-12.54-2.12-9.07,3.57-18.14,12.54-20.17l169.25-39.66c9.07-2.12,18.14,3.57,20.17,12.54,2.12,9.07-3.57,18.14-12.54,20.17l-169.25,39.66Zm568.65-1.35l-206.6-50.37,20.65,83.18c3.47,13.99.87,27.98-6.08,39.47-6.85,11.29-18.14,19.97-31.94,23.45l-1.83.48c0,.1-.58.19-.77.19-52.3,8.4-96.5,16.79-134.23,24.41l-.19-.68-76.04,18.53,24.61,94.26c14.64,15.58,14.53,15.41,42.91,15.51,24.29-8.42,24.27-8.66,32.54-30.55l-22.77-92.06c1.16,1.06,2.61,1.93,4.25,2.32l305.22,74.4c4.92,1.25,10.04-1.83,11.19-6.85l45.74-184.6c1.35-4.82-1.74-9.94-6.66-11.1ZM7.03,88.34L363.1.24c5.02-1.16,10.04,1.93,11.29,6.95l46.8,188.46c1.25,4.92-1.83,10.04-6.85,11.19L58.27,294.94c-4.92,1.25-10.04-1.83-11.19-6.85L.28,99.63c-1.25-5.02,1.83-10.04,6.75-11.29Zm477.94,262.08l-76.04-18.53-22,107.4c4.23,26.34,3.74,25.6,26.68,38.88,24.82,2.87,25.17,3.26,46.02-13.91l25.34-113.85Z"/>
    <path fill="#5B6970" d="m217.55,281.13h91.49v109.1c0,25.25-20.5,45.75-45.75,45.75h0c-25.25,0-45.75-20.5-45.75-45.75v-109.1h0Z" transform="translate(-76.12 71.01) rotate(-13.44)"/>
    <path fill="#5B6970" d="m388.68,338.32h81.35v114.18c0,22.45-18.23,40.68-40.68,40.68h0c-22.45,0-40.68-18.23-40.68-40.68v-114.18h0Z" transform="translate(104.8 -86.1) rotate(13.03)"/>
  </g>
</svg>